<svg width="16" height="16" viewBox="0 0 16 16" fill="none" xmlns="http://www.w3.org/2000/svg">
<rect width="16" height="16" rx="8" fill="#FF544B"/>
<path fill-rule="evenodd" clip-rule="evenodd" d="M5.2081 5.19801C5.34756 5.05853 5.57369 5.0585 5.71317 5.19796L8.00018 7.48454L10.2872 5.19796C10.4267 5.0585 10.6528 5.05853 10.7923 5.19801C10.9317 5.3375 10.9317 5.56363 10.7922 5.70309L8.50531 7.98957L10.7922 10.2761C10.9317 10.4155 10.9317 10.6416 10.7923 10.7811C10.6528 10.9206 10.4267 10.9206 10.2872 10.7812L8.00018 8.4946L5.71317 10.7812C5.57369 10.9206 5.34756 10.9206 5.2081 10.7811C5.06864 10.6416 5.06866 10.4155 5.20814 10.2761L7.49506 7.98957L5.20814 5.70309C5.06866 5.56363 5.06864 5.3375 5.2081 5.19801Z" fill="white"/>
</svg>
